<mxfile host="Electron" agent="Mozilla/5.0 (X11; Linux x86_64) AppleWebKit/537.36 (KHTML, like Gecko) draw.io/24.7.8 Chrome/128.0.6613.162 Electron/32.1.2 Safari/537.36" version="24.7.8">
  <diagram name="Страница — 1" id="mD1K2D0OZLbV-sJE-_4H">
    <mxGraphModel dx="3240" dy="2330" grid="1" gridSize="9.0551" guides="1" tooltips="1" connect="1" arrows="1" fold="1" page="0" pageScale="1" pageWidth="827" pageHeight="1169" math="0" shadow="0">
      <root>
        <mxCell id="0" />
        <mxCell id="1" parent="0" />
        <mxCell id="kWU7aHBkPvbCl_U1K5SZ-28" value="" style="rounded=0;whiteSpace=wrap;html=1;" vertex="1" parent="1">
          <mxGeometry x="-43.33000000000003" y="190.95" width="100.39349999999999" height="165.35399999999998" as="geometry" />
        </mxCell>
        <mxCell id="kWU7aHBkPvbCl_U1K5SZ-29" value="" style="rounded=0;whiteSpace=wrap;html=1;" vertex="1" parent="1">
          <mxGeometry x="-15.770000000000039" y="135.82999999999998" width="45.2755" height="55.117999999999995" as="geometry" />
        </mxCell>
        <mxCell id="kWU7aHBkPvbCl_U1K5SZ-30" value="" style="rounded=0;whiteSpace=wrap;html=1;" vertex="1" parent="1">
          <mxGeometry x="-72.44000000000003" y="356" width="157.48" height="78.74" as="geometry" />
        </mxCell>
        <mxCell id="kWU7aHBkPvbCl_U1K5SZ-31" value="" style="endArrow=none;html=1;rounded=0;exitX=1;exitY=1;exitDx=0;exitDy=0;" edge="1" parent="1" source="kWU7aHBkPvbCl_U1K5SZ-30">
          <mxGeometry width="50" height="50" relative="1" as="geometry">
            <mxPoint x="90.55000000000001" y="434.74" as="sourcePoint" />
            <mxPoint x="335" y="435" as="targetPoint" />
          </mxGeometry>
        </mxCell>
        <mxCell id="kWU7aHBkPvbCl_U1K5SZ-32" value="" style="rounded=0;whiteSpace=wrap;html=1;" vertex="1" parent="1">
          <mxGeometry x="335.04" y="-451.08" width="78.74" height="885.8249999999999" as="geometry" />
        </mxCell>
        <mxCell id="kWU7aHBkPvbCl_U1K5SZ-34" value="" style="rounded=0;whiteSpace=wrap;html=1;" vertex="1" parent="1">
          <mxGeometry x="413.78" y="-333.90999999999997" width="314.96" height="60" as="geometry" />
        </mxCell>
      </root>
    </mxGraphModel>
  </diagram>
</mxfile>
